<svg xmlns="http://www.w3.org/2000/svg" xmlns:xlink="http://www.w3.org/1999/xlink" width="418" height="245" viewBox="0 0 418 245">
  <defs>
    <clipPath id="clip-خطا">
      <rect width="418" height="245"/>
    </clipPath>
  </defs>
  <g id="خطا" clip-path="url(#clip-خطا)">
    <g id="Group_14192" data-name="Group 14192" transform="translate(-144.795 -169.692)">
      <path id="Path_18027" data-name="Path 18027" d="M547.013,381.823c-25.885-5-53-4.3-79.22-4.221-28.558.091-55.8,4.72-84.126,6.864-14.728,1.111-30.293-.89-45.055-1.409q-36.462-1.279-72.91-3c-20.95-.99-42.693,1.23-61.173,12.928-2.1,1.331-4.222,2.936-5.178,5.323-6,14.988,68.812,13.105,78.559,13.362,49.168,1.3,98.368,1.966,147.542.618,36.561-1,74.666-.942,110.925-6.167,8.018-1.156,18.931-1.57,25.859-6.349" fill="#e7f5fe"/>
      <g id="Group_14164" data-name="Group 14164">
        <path id="Path_18028" data-name="Path 18028" d="M438.494,187.489c8.876,0,23.34,5.261,21.91,18.254-1.96,17.805-54.756,11.239-67.365,11.424-25.359.371-50.985.514-75.849,8.826-6.045,2.021-14.705,6.482-14.046,18.044a19.689,19.689,0,0,0,3.838,10.428c7.261,9.83,17.378,10.772,26.77,12.5,14.2,2.61,81.774-.868,103.861,9.987,4.35,2.138,9.785,4.895,9.966,14.209.46,23.683-38.778,22.517-50.547,22.967-31.414,1.2-62.864.725-94.278-.2-25.387-.751-50.854-1.416-76.2-3.872-9.448-.915-24.9-1.19-32.107-11.822-4.029-5.945-4.557-16.753,1.813-22.275,4.49-3.892,17.661-2.19,22.731-2.843,16.384-2.113,9.962-17.89-4.4-17.89" fill="none" stroke="#d2e8f9" stroke-miterlimit="10" stroke-width="1" stroke-dasharray="4"/>
        <g id="Group_14157" data-name="Group 14157">
          <path id="Path_18029" data-name="Path 18029" d="M439.393,204.807l-4.045-32.051c-.242-1.916-1.776-2.721-2.762-1.449l-16.495,21.277c-.986,1.272-.684,3.666.544,4.31l20.54,10.774C438.4,208.312,439.634,206.723,439.393,204.807Z" fill="#f0faff"/>
          <g id="Group_14156" data-name="Group 14156">
            <path id="Path_18030" data-name="Path 18030" d="M436.276,204.32a.74.74,0,0,1-.345-.088l-16.894-8.862a1.542,1.542,0,0,1-.685-1.193,2.074,2.074,0,0,1,.347-1.485l13.568-17.5a.8.8,0,0,1,1.03-.293,1.543,1.543,0,0,1,.685,1.193l3.327,26.364a2.073,2.073,0,0,1-.347,1.485A.878.878,0,0,1,436.276,204.32Zm-16.333-10.594,15.963,8.374-3.143-24.91Z" fill="#b5ddf7"/>
          </g>
          <path id="Path_18031" data-name="Path 18031" d="M428.941,193.557h0a1.1,1.1,0,0,1-.4-1.169l1.675-8.81c.163-.813.746-1.258,1.28-.977h0a1.774,1.774,0,0,1,.6,1.96l-2.356,8.454C429.612,193.486,429.261,193.725,428.941,193.557Z" fill="#b5ddf7"/>
          <path id="Path_18032" data-name="Path 18032" d="M429.064,195.959c-.117.5-.486.77-.822.593a1.141,1.141,0,0,1-.4-1.232c.118-.5.486-.77.822-.593A1.138,1.138,0,0,1,429.064,195.959Z" fill="#b5ddf7"/>
        </g>
        <g id="Group_14159" data-name="Group 14159">
          <path id="Path_18033" data-name="Path 18033" d="M213.307,244.439l-13.3-9.924c-.795-.593-1.72.326-1.665,1.655l.916,22.226c.055,1.328,1.049,2.069,1.789,1.334l12.382-12.3A2.224,2.224,0,0,0,213.307,244.439Z" fill="#f0faff"/>
          <g id="Group_14158" data-name="Group 14158">
            <path id="Path_18034" data-name="Path 18034" d="M211.844,246.778a.953.953,0,0,1-.174.246l-10.185,10.119a.522.522,0,0,1-.715.066,1.187,1.187,0,0,1-.4-.9l-.753-18.281a1.307,1.307,0,0,1,.318-.962.522.522,0,0,1,.715-.066l10.939,8.162a1.18,1.18,0,0,1,.4.895A1.465,1.465,0,0,1,211.844,246.778Zm-10.581,8.948,9.623-9.562-10.336-7.712Z" fill="#b5ddf7"/>
          </g>
          <path id="Path_18035" data-name="Path 18035" d="M204.913,248.32h0c-.192.191-.452.121-.588-.159l-2.506-5a1.359,1.359,0,0,1,.174-1.448h0c.322-.32.757-.172.956.325l2.1,5.407A.863.863,0,0,1,204.913,248.32Z" fill="#b5ddf7"/>
          <path id="Path_18036" data-name="Path 18036" d="M205.836,249.21a.883.883,0,0,1-.124.915c-.2.2-.476.118-.611-.185a.881.881,0,0,1,.124-.915C205.428,248.823,205.7,248.906,205.836,249.21Z" fill="#b5ddf7"/>
        </g>
        <g id="Group_14163" data-name="Group 14163">
          <ellipse id="Ellipse_2087" data-name="Ellipse 2087" cx="1.108" cy="1.661" rx="1.108" ry="1.661" transform="translate(221.411 285.938)" fill="none" stroke="#d2e8f9" stroke-miterlimit="10" stroke-width="1"/>
          <ellipse id="Ellipse_2088" data-name="Ellipse 2088" cx="1.108" cy="1.661" rx="1.108" ry="1.661" transform="translate(385.804 255.219)" fill="none" stroke="#d2e8f9" stroke-miterlimit="10" stroke-width="1"/>
          <ellipse id="Ellipse_2089" data-name="Ellipse 2089" cx="1.108" cy="1.661" rx="1.108" ry="1.661" transform="translate(298.583 208.698)" fill="none" stroke="#d2e8f9" stroke-miterlimit="10" stroke-width="1"/>
          <ellipse id="Ellipse_2090" data-name="Ellipse 2090" cx="1.108" cy="1.661" rx="1.108" ry="1.661" transform="translate(297.253 334.951)" fill="none" stroke="#d2e8f9" stroke-miterlimit="10" stroke-width="1"/>
          <g id="Group_14160" data-name="Group 14160">
            <line id="Line_747" data-name="Line 747" y2="3.756" transform="translate(324.172 238.859)" fill="none" stroke="#d2e8f9" stroke-linecap="round" stroke-linejoin="round" stroke-width="1"/>
            <line id="Line_748" data-name="Line 748" x1="2.506" transform="translate(322.919 240.736)" fill="none" stroke="#d2e8f9" stroke-linecap="round" stroke-linejoin="round" stroke-width="1"/>
          </g>
          <g id="Group_14161" data-name="Group 14161">
            <line id="Line_749" data-name="Line 749" y2="3.756" transform="translate(369.142 190.872)" fill="none" stroke="#d2e8f9" stroke-linecap="round" stroke-linejoin="round" stroke-width="1"/>
            <line id="Line_750" data-name="Line 750" x1="2.506" transform="translate(367.889 192.75)" fill="none" stroke="#d2e8f9" stroke-linecap="round" stroke-linejoin="round" stroke-width="1"/>
          </g>
          <g id="Group_14162" data-name="Group 14162">
            <line id="Line_751" data-name="Line 751" y2="3.756" transform="translate(438.715 292.184)" fill="none" stroke="#d2e8f9" stroke-linecap="round" stroke-linejoin="round" stroke-width="1"/>
            <line id="Line_752" data-name="Line 752" x1="2.506" transform="translate(437.462 294.062)" fill="none" stroke="#d2e8f9" stroke-linecap="round" stroke-linejoin="round" stroke-width="1"/>
          </g>
        </g>
      </g>
      <g id="Group_14178" data-name="Group 14178">
        <g id="Group_14169" data-name="Group 14169">
          <g id="Group_14166" data-name="Group 14166">
            <path id="Path_18037" data-name="Path 18037" d="M400.173,399.552s-6.991,2.982-6.986,4.474c0,.856,9.613-.369,10.192-.948.927-.927-.375-3.4-.375-3.4Z" fill="#26387a"/>
            <path id="Path_18038" data-name="Path 18038" d="M399.725,395.383l.448,4.3a1.312,1.312,0,0,0,1.21.772,2.033,2.033,0,0,0,1.621-.772l-.345-5.379" fill="#ffb288"/>
            <path id="Path_18039" data-name="Path 18039" d="M411.933,296.808c2.543,10.245,1.6,15.449-2.126,23.178-2.257,25.987-3.834,51.872-6.871,77.21l-3.211.184c-7.3-24.67-14.009-61.55-13.153-95.261" fill="#26387a"/>
            <g id="Group_14165" data-name="Group 14165">
              <path id="Path_18040" data-name="Path 18040" d="M410.349,300.328a19.39,19.39,0,0,1,1.081,7.589c-.124,3.888-1.7,7.408-2.727,11.1-1.365,4.917-1.47,9.814-1.843,14.854q-.876,11.83-1.783,23.658-1.47,19.292-2.966,38.579-.043.573-.089,1.145" fill="none" stroke="#0061a6" stroke-miterlimit="10" stroke-width="0.5"/>
            </g>
          </g>
          <g id="Group_14168" data-name="Group 14168">
            <path id="Path_18041" data-name="Path 18041" d="M428.048,400.552s-6.991,2.982-6.986,4.474c0,.856,9.613-.369,10.192-.948.927-.927-.375-3.4-.375-3.4Z" fill="#26387a"/>
            <path id="Path_18042" data-name="Path 18042" d="M427.6,396.383l.448,4.3a1.312,1.312,0,0,0,1.21.772,2.033,2.033,0,0,0,1.621-.772l-.345-5.379" fill="#ffb288"/>
            <path id="Path_18043" data-name="Path 18043" d="M435.18,295.94c3.215,10.055,2.618,15.31-.587,23.269-.533,26.079-2.327,53.311-3.68,78.795h-3.3c-8.912-24.133-18.459-61.392-19.835-95.086" fill="#26387a"/>
            <g id="Group_14167" data-name="Group 14167">
              <path id="Path_18044" data-name="Path 18044" d="M433.587,300.105s3.727,8.722-2.573,20.972c-.727,11.561-1.1,76.927-1.1,76.927" fill="none" stroke="#0061a6" stroke-miterlimit="10" stroke-width="0.5"/>
              <path id="Path_18045" data-name="Path 18045" d="M424.367,302.868a5.76,5.76,0,0,0,2.734,2.125,13.584,13.584,0,0,0,3.408.772,24.191,24.191,0,0,0,4.156.214" fill="none" stroke="#0061a6" stroke-miterlimit="10" stroke-width="0.5"/>
              <path id="Path_18046" data-name="Path 18046" d="M424.823,304.5a9.487,9.487,0,0,0,4.272,2.1,22.3,22.3,0,0,0,4.771.451" fill="none" stroke="#0061a6" stroke-miterlimit="10" stroke-width="0.5"/>
            </g>
          </g>
        </g>
        <g id="Group_14170" data-name="Group 14170">
          <path id="Path_18047" data-name="Path 18047" d="M397.023,247.344c-11.118,19.346-23.086,36.867-30.182,58.023l-2.114-1.124c.54-19.642,6.906-48.2,15.266-65.986" fill="#ffb288"/>
          <path id="Path_18048" data-name="Path 18048" d="M391.59,227.141a29.381,29.381,0,0,0-7.485,3.655,25.48,25.48,0,0,0-8.644,10.43,47.231,47.231,0,0,0-3.722,13.148,34.914,34.914,0,0,0,9.988,2.993,52.726,52.726,0,0,0,11.008,0" fill="#d9f0ff"/>
        </g>
        <g id="Group_14171" data-name="Group 14171">
          <path id="Path_18049" data-name="Path 18049" d="M383.3,238.576c-1.183,20.923-.281,42.447.25,62.8,0,0,7.3,1.941,25.023,1.941,17.66,0,29.225-5.383,29.225-5.383-3.422-20.918-6.143-46.583-14.523-63.8,0,0-9.455-10.2-18.784-10.618a12.172,12.172,0,0,0-5.536,1.433c-1.316.612-7.365,2.091-7.365,2.091Z" fill="#d9f0ff"/>
          <path id="Path_18050" data-name="Path 18050" d="M383.2,240.441c-.463,4.022-.463,16.439-.463,16.439" fill="none" stroke="#94c1f2" stroke-miterlimit="10" stroke-width="0.5"/>
        </g>
        <g id="Group_14175" data-name="Group 14175">
          <path id="Path_18051" data-name="Path 18051" d="M398.28,307.962c29.241-3.284,30.619,13.166,26.543,28.65-5.262,19.993-80.546,46.824,23.8,50.745,35.418,1.331,101.345,6.887,84.8,13.232" fill="none" stroke="#b4e8fd" stroke-linecap="round" stroke-linejoin="round" stroke-width="5"/>
          <path id="Path_18052" data-name="Path 18052" d="M411.038,309.657c0,15.235-11.531,24.429-21.386,24.429H373.487V285.227h16.165C399.507,285.227,411.038,294.422,411.038,309.657Z" fill="#fdae2b"/>
          <path id="Path_18053" data-name="Path 18053" d="M402.708,309.657c0,14.887-8.815,26.955-19.689,26.955H365.183V282.7h17.836C393.893,282.7,402.708,294.77,402.708,309.657Z" fill="#ef8417"/>
          <path id="Path_18054" data-name="Path 18054" d="M406.659,294.93q-5.785,7.884-11.267,15.985a2.735,2.735,0,0,0,1.379-.722c0,.4-.646,1.106-.075,1.366s1.175-.408,1.771-.225c.559-.131,1.081-.832,1.49-1.236a3.056,3.056,0,0,0-.25.943c3.935-1.53,7.454-5.2,10.515-8.151A24.662,24.662,0,0,0,406.659,294.93Z" fill="#fdae2b" opacity="0.5" style="mix-blend-mode: multiply;isolation: isolate"/>
          <ellipse id="Ellipse_2091" data-name="Ellipse 2091" cx="19.689" cy="26.955" rx="19.689" ry="26.955" transform="translate(346.768 282.702)" fill="#ffc840"/>
          <g id="Group_14174" data-name="Group 14174">
            <g id="Group_14172" data-name="Group 14172">
              <path id="Path_18055" data-name="Path 18055" d="M368.1,319.209c0,2.212-1.511,4.006-3.375,4.006s-3.376-1.794-3.376-4.006,1.512-4.006,3.376-4.006S368.1,317,368.1,319.209Z" fill="#ef8417"/>
            </g>
            <g id="Group_14173" data-name="Group 14173">
              <path id="Path_18056" data-name="Path 18056" d="M368.1,300.105c0,2.212-1.511,4.006-3.375,4.006s-3.376-1.794-3.376-4.006,1.512-4.006,3.376-4.006S368.1,297.893,368.1,300.105Z" fill="#ef8417"/>
            </g>
          </g>
        </g>
        <g id="Group_14176" data-name="Group 14176">
          <path id="Path_18057" data-name="Path 18057" d="M428.663,254.018s1.25,12.732-4.443,23.32c-4.869,9.054-14.54,20.773-22.354,27.23l-1.877-.457c2.719-10.436,11.3-28.966,11.837-35.913s.406-15,.534-18.868" fill="#ffb288"/>
          <path id="Path_18058" data-name="Path 18058" d="M404.491,223.514s10.479.717,16.558,5.853c8.679,7.334,9.965,21.687,9.965,25.02-2.623,2.835-8.358,2.98-12.537,2.98a14.41,14.41,0,0,1-7.232-2l-.853-15.833" fill="#d9f0ff"/>
          <path id="Path_18059" data-name="Path 18059" d="M400.751,302.56a6.665,6.665,0,0,0-3.351,1.481c-.918.717-2.047,1.918-1.929,2.467.124.577,1.629-.533,1.812-.309s-2.576,4.39-2.056,4.7,2.866-3.462,2.866-3.462-2.279,4.032-1.4,4.12c.737.074,2.76-3.742,2.76-3.742s-1.711,3.412-1.125,3.541,2.171-3.27,2.171-3.27-1.29,2.9-.8,2.953c.25.025,1.524-1.419,2.056-3.169.524-1.721,1.136-3.215.664-4.558" fill="#ffb288"/>
          <line id="Line_753" data-name="Line 753" y2="14.425" transform="translate(411.683 241.198)" fill="none" stroke="#94c1f2" stroke-miterlimit="10" stroke-width="0.5"/>
        </g>
        <g id="Group_14177" data-name="Group 14177">
          <path id="Path_18060" data-name="Path 18060" d="M382.774,210.207c-.055.625-.08,1.253-.075,1.88a6.782,6.782,0,0,0,.968,3.9,4.1,4.1,0,0,0,2.249,1.578c.638.174,1.473.1,1.748-.5a1.631,1.631,0,0,0,.1-.688,18.483,18.483,0,0,0-1.328-6.807" fill="#26387a"/>
          <path id="Path_18061" data-name="Path 18061" d="M398.586,211.518c-.9-3.5-3.726-8.412-8.327-7.427a8.412,8.412,0,0,0-6.4,5.343c-1.015,3.291.631,7.118,2.6,9.8a8.125,8.125,0,0,0,2.713,2.516c2.664,1.377,6.259.248,8.067-2.046A9.443,9.443,0,0,0,398.586,211.518Z" fill="#ffb288"/>
          <path id="Path_18062" data-name="Path 18062" d="M392.133,220.681l1.5,5.494-2.047.966a5,5,0,0,0,4.649,1.63c6.278-.906,8.252-5.257,8.252-5.257l-3.544-.37-3.924-6.688" fill="#ffb288"/>
          <path id="Path_18063" data-name="Path 18063" d="M401.649,207.7a8.819,8.819,0,0,0-4.248-5.723c-3.716-2.257-9.005-2.438-12.313.671-1.884,1.77-5.274,8.046-1.223,9.291,1.265.389,2.567-.381,3.668-1.117l3.359-2.246a2.664,2.664,0,0,1,1.313-.565,1.965,1.965,0,0,1,1.733,1.394,18.224,18.224,0,0,1,.488,2.322,2.221,2.221,0,0,0,.841,1.406,1.034,1.034,0,0,0,1.456-.293,2.593,2.593,0,0,0,.041-1.153c-.007-.389.212-.865.6-.848a.682.682,0,0,1,.376.163c.978.761.66,2.287.985,3.483.043.157-.285,2.577-.176,2.7C401.671,216.456,401.965,209.421,401.649,207.7Z" fill="#26387a"/>
          <path id="Path_18064" data-name="Path 18064" d="M397.031,211.141a.864.864,0,0,1,.8-.9,1.7,1.7,0,0,1,1.223.465,2.708,2.708,0,0,1,1.023,1.971,3.042,3.042,0,0,1-.557,1.679,1.8,1.8,0,0,1-.9.791,1.421,1.421,0,0,1-1.409-.449" fill="#ffb288"/>
        </g>
      </g>
      <g id="Group_14190" data-name="Group 14190">
        <g id="Group_14181" data-name="Group 14181">
          <g id="Group_14179" data-name="Group 14179">
            <path id="Path_18065" data-name="Path 18065" d="M285.675,399.4s6.744,1.124,6.93,2.605c.106.849-9.452,1.861-10.1,1.361-1.038-.8.235-3.793.235-3.793Z" fill="#26387a"/>
            <path id="Path_18066" data-name="Path 18066" d="M285.139,395.265l.553,4.262a1.314,1.314,0,0,1-1.1.922,2.034,2.034,0,0,1-1.707-.558l-.793-5.321" fill="#ffb288"/>
            <path id="Path_18067" data-name="Path 18067" d="M259.931,298.124c-1.2,10.487-1.271,15.527,3.416,22.713,2.221,10.148,5.631,20.535,8.209,30.924-1.11,12.406,6.668,32.168,10.852,46.282l3.024-.517c4.066-25.4,5.568-64.359,1.919-98.46" fill="#26387a"/>
            <path id="Path_18068" data-name="Path 18068" d="M261.9,312.333s11.6,36.834,11.6,38.834.317,8.875.831,13.333c.942,8.167,8.342,32.239,8.342,32.239" fill="none" stroke="#0061a6" stroke-miterlimit="10" stroke-width="0.5"/>
            <path id="Path_18069" data-name="Path 18069" d="M282.313,398.61l-.468-1.841,3.9-.145.052,1.7Z" fill="#0061a6"/>
          </g>
          <g id="Group_14180" data-name="Group 14180">
            <path id="Path_18070" data-name="Path 18070" d="M233.233,399.609s5.276,3.812,4.808,5.154c-.268.769-8.85-2.411-9.192-3.112-.547-1.121,1.806-3.137,1.806-3.137Z" fill="#26387a"/>
            <path id="Path_18071" data-name="Path 18071" d="M234.525,395.855l-1.332,3.87a1.249,1.249,0,0,1-1.329.32,1.935,1.935,0,0,1-1.22-1.2l1.574-4.875" fill="#ffb288"/>
            <path id="Path_18072" data-name="Path 18072" d="M237.267,295.94c-3.215,10.055-2.618,15.31.588,23.269.194,9.525.29,19.164.4,28.8-6.786,16.987-7.861,32.23-7,48.406l3.273,1.213s19.487-33.965,23.071-47.392a221.956,221.956,0,0,0,7.076-47.322" fill="#26387a"/>
            <path id="Path_18073" data-name="Path 18073" d="M238.071,298.124s-3.546,10.376,1.1,20.376c0,2.791,1.6,26,.966,29.584-.3,1.72-3.489,9.923-5.616,17.909-2.354,8.833-2.851,29.664-2.851,29.664" fill="none" stroke="#0061a6" stroke-miterlimit="10" stroke-width="0.5"/>
            <path id="Path_18074" data-name="Path 18074" d="M230.644,396.416l.518-2.186,4.189,1.948-.826,1.872Z" fill="#0061a6"/>
          </g>
        </g>
        <g id="Group_14182" data-name="Group 14182">
          <path id="Path_18075" data-name="Path 18075" d="M291.772,218.284l-2.625-2.241V211.4c0-.72-.977-5.042-1.857-5.042s-1.081-1.081-1.521-.641.36,5.323,0,5.683-.827-2.319-1.16-1.986-.361,2.3-.361,3.3a6.678,6.678,0,0,0,1.6,3.654c.8.8,4.323,4.607,4.323,4.607Z" fill="#ef9467"/>
          <path id="Path_18076" data-name="Path 18076" d="M290.458,216.8l-2.2,2.5s8.669,11.475,11.416,15.317a45.9,45.9,0,0,1-8.179-4.438c-4.078-2.674-8.167-4.092-10.995-4.092-6.005,0-2.862,19.794,4.1,22.691,13.215,1.987,28.027.73,30.295-3.915C318.266,237.974,298.9,221.757,290.458,216.8Z" fill="#d9f0ff"/>
          <path id="Path_18077" data-name="Path 18077" d="M299.679,234.612s1.653,4.617,4.592,6.124" fill="none" stroke="#94c1f2" stroke-miterlimit="10" stroke-width="0.5"/>
        </g>
        <g id="Group_14183" data-name="Group 14183">
          <path id="Path_18078" data-name="Path 18078" d="M250.163,231.321c-15.753,17.692-15.514,48.111-15.514,68.787,0,0,11.565,7.895,29.225,7.895,17.727,0,25.023-4.353,25.023-4.353.531-20.948-3.205-29.983.25-64.634,0,0-5.637-12.934-8.642-12.934s-14.76-1.159-14.76-1.159Z" fill="#d9f0ff"/>
          <path id="Path_18079" data-name="Path 18079" d="M288.276,249.238s.358-6.052,1.827-7.522" fill="none" stroke="#94c1f2" stroke-miterlimit="10" stroke-width="0.5"/>
        </g>
        <path id="Path_18080" data-name="Path 18080" d="M270.953,211.658c.586-3.57,3.129-8.669,7.8-8.092,2.933.362,5.2,2.387,6.845,4.759,1.408,2.034.876,3.98-1.127,9.13a13.261,13.261,0,0,1-3.084,3.61c-2.532,1.607-6.213.8-8.216-1.327A9.613,9.613,0,0,1,270.953,211.658Z" fill="#ffb288"/>
        <path id="Path_18081" data-name="Path 18081" d="M271.577,211.223c.672-.1.005-.538.3.074.19.391.246.505.627.632s.381.467.693.7c.486.362.9-.13,1.1-.547a4.7,4.7,0,0,0,.279-2.543c-.07-.658-.29-1.7.355-2.156.527-.374,1.692.168,2.235.325.838.243,1.667.514,2.5.768a14.88,14.88,0,0,0,6.253.865,6.062,6.062,0,0,0,4.646-2.926c1.062-2.055-1.061-4.74-3.225-4.743a8.4,8.4,0,0,0-1.658.343,1.281,1.281,0,0,1-.621.009c-.472-.139-.68-.669-.946-1.083a3.563,3.563,0,0,0-3.585-1.475,29.223,29.223,0,0,0-4.5,1.361,9.2,9.2,0,0,1-2.315.038,2.456,2.456,0,0,0-2.055,1.342c-.654-.685-2.113.993-2.476,1.435-1.6,1.943-2.1,4.742-2.145,7.2-.038,2.148.32,5.272,2.675,6.137,1,.365,1.623.56,1.665-.353a14.326,14.326,0,0,1-.629-3.614,1.911,1.911,0,0,1,.875-2.039" fill="#26387a"/>
        <path id="Path_18082" data-name="Path 18082" d="M279.245,220.185l-.513,5.4,1.773.5a4.994,4.994,0,0,1-4.029,2.834c-6.288.838-10.731-3.993-10.731-3.993l2.1-.406,3.177-10.017" fill="#ffb288"/>
        <path id="Path_18083" data-name="Path 18083" d="M272.627,211.185a.864.864,0,0,0-.874-.826,1.705,1.705,0,0,0-1.178.571c-1.758,1.751.452,6.018,2.187,3.814" fill="#ffb288"/>
        <path id="Path_18084" data-name="Path 18084" d="M284.48,217.361c-.282.661-1.4.925-2.008.992-2.958.327-5.412-1.585-8.244-1.935a1.506,1.506,0,0,0-2.062,1.76,18.493,18.493,0,0,0,.035,1.984,3.817,3.817,0,0,0,.456,1.64c1.278,2.129,5.545,2.488,7.708,2.356a4.52,4.52,0,0,0,2.467-.739c.974-.734,1.185-2.018,1.549-3.147A6.234,6.234,0,0,0,284.48,217.361Z" fill="#26387a"/>
        <path id="Path_18085" data-name="Path 18085" d="M282.381,219.685a.587.587,0,0,0-.314-.114,28.786,28.786,0,0,1-3.225-.415,1.509,1.509,0,0,0-.549.027,1.124,1.124,0,0,0-.681.9.758.758,0,0,0,.469.863,4.958,4.958,0,0,0,2.071.452,2.97,2.97,0,0,0,1.94-.347C282.385,220.81,282.815,220,282.381,219.685Z" fill="#ffb288"/>
        <g id="Group_14188" data-name="Group 14188">
          <path id="Path_18086" data-name="Path 18086" d="M269.374,297.773c-34.413-1.8-13.489,28.6-27.718,60.95-18.467,41.981-24.547,33.49-96.861,32.462" fill="none" stroke="#b4e8fd" stroke-linecap="round" stroke-linejoin="round" stroke-width="5"/>
          <path id="Path_18087" data-name="Path 18087" d="M256.171,300.575c1.266,15.182,13.521,23.386,23.342,22.567l16.109-1.344-4.062-48.689-16.108,1.343C265.631,275.272,254.9,285.392,256.171,300.575Z" fill="#fdae2b"/>
          <path id="Path_18088" data-name="Path 18088" d="M264.472,299.882c1.237,14.836,11.025,26.129,21.861,25.225l17.774-1.482L299.626,269.9l-17.774,1.482C271.015,272.288,263.234,285.047,264.472,299.882Z" fill="#ef8417"/>
          <ellipse id="Ellipse_2092" data-name="Ellipse 2092" cx="19.689" cy="26.955" rx="19.689" ry="26.955" transform="translate(278.736 271.644) rotate(-4.768)" fill="#ffc840"/>
          <g id="Group_14186" data-name="Group 14186">
            <g id="Group_14184" data-name="Group 14184">
              <path id="Path_18089" data-name="Path 18089" d="M299.751,306.525c.184,2.2,1.839,3.866,3.7,3.711s3.215-2.068,3.031-4.272-1.839-3.867-3.7-3.711S299.568,304.32,299.751,306.525Z" fill="#fdae2b"/>
            </g>
            <g id="Group_14185" data-name="Group 14185">
              <path id="Path_18090" data-name="Path 18090" d="M298.163,287.487c.184,2.2,1.839,3.866,3.7,3.711s3.215-2.068,3.031-4.272-1.839-3.866-3.7-3.711S297.98,285.282,298.163,287.487Z" fill="#fdae2b"/>
            </g>
          </g>
          <g id="Group_14187" data-name="Group 14187">
            <path id="Path_18091" data-name="Path 18091" d="M302.085,289.982l25.123-2.1a2.8,2.8,0,0,0,2.541-3.035h0a2.8,2.8,0,0,0-3.008-2.571l-25.124,2.1C299.7,284.537,300.062,290.151,302.085,289.982Z" fill="#e2e8ed"/>
            <path id="Path_18092" data-name="Path 18092" d="M303.673,309.02l25.123-2.1a2.8,2.8,0,0,0,2.541-3.035h0a2.8,2.8,0,0,0-3.008-2.571l-25.124,2.1C301.283,303.575,301.65,309.189,303.673,309.02Z" fill="#e2e8ed"/>
          </g>
        </g>
        <g id="Group_14189" data-name="Group 14189">
          <path id="Path_18093" data-name="Path 18093" d="M241.772,254.018s-1.25,12.732,4.443,23.32c4.868,9.054,14.54,20.773,22.354,27.23l1.877-.457c-2.719-10.436-11.3-28.966-11.838-35.913s-.4-15-.534-18.868" fill="#ffb288"/>
          <path id="Path_18094" data-name="Path 18094" d="M265.745,224.923s-11.042.637-17.392,5.434c-10.978,8.294-8.824,30.565-5.628,41.455S261.3,299.04,266.262,302.56c.814,0,3.205-.2,3.119-2.075-2.746-8.49-10.576-30.823-10.576-30.823l1.237-30.128" fill="#d9f0ff"/>
          <path id="Path_18095" data-name="Path 18095" d="M269.684,302.56a6.668,6.668,0,0,1,3.351,1.481c.918.717,2.047,1.918,1.929,2.467-.125.577-1.629-.533-1.812-.309s2.575,4.39,2.056,4.7-2.866-3.462-2.866-3.462,2.279,4.032,1.4,4.12c-.738.074-2.76-3.742-2.76-3.742s1.71,3.412,1.125,3.541-2.172-3.27-2.172-3.27,1.291,2.9.795,2.953c-.249.025-1.523-1.419-2.056-3.169-.524-1.721-1.136-3.215-.663-4.558" fill="#ffb288"/>
          <path id="Path_18096" data-name="Path 18096" d="M261.9,278.535c-1.76-5.067-3.1-8.873-3.1-8.873l2.32-25.287" fill="none" stroke="#94c1f2" stroke-miterlimit="10" stroke-width="0.5"/>
          <path id="Path_18097" data-name="Path 18097" d="M240.2,250.517c-.063,6.858.763,15.306,2.521,21.3,1.538,5.242,5.9,11.746,10.561,17.475" fill="none" stroke="#94c1f2" stroke-miterlimit="10" stroke-width="0.5"/>
        </g>
      </g>
      <g id="Group_14191" data-name="Group 14191">
        <path id="Path_18098" data-name="Path 18098" d="M254.461,212.356,244.217,204.1s4.606-17.013-1.492-22.955a33.319,33.319,0,0,0-11.582-6.926c-9.426-3.577-20.686-4.389-29.087,1.186-6.2,4.112-9.964,11.16-11.651,18.4-1.484,6.378-1.36,13.626,2.627,18.82a20.434,20.434,0,0,0,6.849,5.453c8.1,4.247,29.544,5.85,38.846-.383,2.576-1.726,2.35-4.06,3.429-7.706Z" fill="#e7f5fe"/>
      </g>
    </g>
  </g>
</svg>
